<?xml version="1.0" encoding="utf-8"?>
<!-- Generator: Adobe Illustrator 27.4.0, SVG Export Plug-In . SVG Version: 6.00 Build 0)  -->
<svg version="1.1" id="레이어_1" xmlns="http://www.w3.org/2000/svg" xmlns:xlink="http://www.w3.org/1999/xlink" x="0px"
	 y="0px" viewBox="0 0 256 256" style="enable-background:new 0 0 256 256;" xml:space="preserve">
<path d="M120.4,28.3c4.2-7.1,11-7.1,15.1,0l32.7,56c0.1,0.1,0.2,0.2,0.3,0.2l63.3,13.8c8.1,1.8,10.2,8.2,4.7,14.4l-43.2,48.5
	c0,0,0,0,0,0l6.5,64.7c0.8,8.2-4.7,12.2-12.2,8.9l-59.3-26.1c-0.1,0-0.2,0-0.3,0l-59.3,26.1c-7.6,3.3-13.1-0.7-12.2-8.9l6.4-64.3
	c0-0.2-0.1-0.5-0.2-0.7l-43-48.2c-5.5-6.2-3.4-12.6,4.7-14.4l62.5-13.6c0.6-0.1,1.2-0.5,1.5-1.1L120.4,28.3z"/>
</svg>
