<?xml version="1.0" encoding="utf-8"?>
<!-- Generator: Adobe Illustrator 27.5.0, SVG Export Plug-In . SVG Version: 6.00 Build 0)  -->
<svg version="1.1" id="레이어_1" xmlns="http://www.w3.org/2000/svg" xmlns:xlink="http://www.w3.org/1999/xlink" x="0px"
	 y="0px" viewBox="0 0 200 100" style="enable-background:new 0 0 200 100;" xml:space="preserve">
<style type="text/css">
	.st0{fill:#ECECEC;}
	.st1{fill:#E7DE00;}
	.st2{fill:#595C00;}
</style>
<g>
	<path class="st0" d="M49.9,15.3l11.2,19.3l0.4,0.7l0.5,0.5c1,1,2.2,1.5,3.1,1.7l0,0L87,42.3L72.1,59l-1.8,2l0.3,2.6l2.2,22.3
		l-20.4-9l-1.2-0.5h-1.3H50h-1.3l-1.2,0.5l-20.4,9l2.2-22.1l0-0.3v-0.3c0-1.3-0.4-2.3-0.7-3l-0.4-0.7l-0.5-0.6L13,42.3l21.4-4.7
		c2-0.4,3.7-1.6,4.6-3.4L49.9,15.3 M50,6.5c-1.1,0-2.2,0.7-3.1,2.2L33.8,31.3c-0.1,0.2-0.4,0.4-0.6,0.4L7.7,37.3
		c-3.3,0.7-4.2,3.3-1.9,5.9l17.6,19.7c0,0.1,0.1,0.2,0.1,0.3l-2.6,26.3c-0.3,2.6,1,4.1,2.9,4.1c0.6,0,1.3-0.2,2-0.5L50,82.3
		c0,0,0.1,0,0.1,0L74.3,93c0.7,0.3,1.4,0.5,2,0.5c2,0,3.2-1.6,3-4.1L76.6,63l17.6-19.8c2.2-2.5,1.4-5.1-1.9-5.9l-25.8-5.6
		c0,0-0.1,0-0.1-0.1L53,8.7C52.2,7.2,51.1,6.5,50,6.5L50,6.5z"/>
</g>
<g>
	<path class="st1" d="M176.3,90.5c-0.1,0-0.4-0.1-0.8-0.2l-24.8-10.9h-1.4l-24.8,10.9c-0.4,0.2-0.6,0.2-0.8,0.2c0-0.1-0.1-0.4,0-0.8
		l2.6-26.4v-0.1c0-0.7-0.2-1.3-0.4-1.6l-0.2-0.4l-17.8-20c-0.3-0.3-0.4-0.5-0.4-0.7c0.1-0.1,0.4-0.2,0.8-0.3l25.5-5.5
		c1.1-0.2,2.1-0.9,2.6-1.9l13-22.5c0.2-0.3,0.4-0.5,0.5-0.6c0.1,0.1,0.3,0.3,0.5,0.6L164,33.4l0.3,0.3c0.6,0.6,1.2,0.8,1.7,0.9
		l25.8,5.6c0.4,0.1,0.6,0.2,0.8,0.3c-0.1,0.1-0.2,0.4-0.5,0.7l-18.5,20.8l2.8,27.7C176.3,90.1,176.3,90.3,176.3,90.5z"/>
	<path class="st2" d="M149.9,15.3l11.2,19.3l0.4,0.7l0.5,0.5c1,1,2.2,1.5,3.1,1.7l0,0l21.8,4.8L172.1,59l-1.8,2l0.3,2.6l2.2,22.3
		l-20.4-9l-1.2-0.5h-1.3H150h-1.3l-1.2,0.5l-20.4,9l2.2-22.1l0-0.3v-0.3c0-1.3-0.4-2.3-0.7-3l-0.4-0.7l-0.5-0.6L113,42.3l21.4-4.7
		c2-0.4,3.7-1.6,4.6-3.4L149.9,15.3 M150,6.5c-1.1,0-2.2,0.7-3.1,2.2l-13.1,22.6c-0.1,0.2-0.4,0.4-0.6,0.4l-25.5,5.6
		c-3.3,0.7-4.2,3.3-1.9,5.9l17.6,19.7c0,0.1,0.1,0.2,0.1,0.3l-2.6,26.3c-0.3,2.6,1,4.1,2.9,4.1c0.6,0,1.3-0.2,2-0.5L150,82.3
		c0,0,0.1,0,0.1,0L174.3,93c0.7,0.3,1.4,0.5,2,0.5c2,0,3.2-1.6,3-4.1L176.6,63l17.6-19.8c2.2-2.5,1.4-5.1-1.9-5.9l-25.8-5.6
		c0,0-0.1,0-0.1-0.1L153,8.7C152.2,7.2,151.1,6.5,150,6.5L150,6.5z"/>
</g>
</svg>
