<?xml version="1.0" encoding="utf-8"?>
<!-- Generator: Adobe Illustrator 27.4.0, SVG Export Plug-In . SVG Version: 6.00 Build 0)  -->
<svg version="1.1" id="레이어_1" xmlns="http://www.w3.org/2000/svg" xmlns:xlink="http://www.w3.org/1999/xlink" x="0px"
	 y="0px" viewBox="0 0 200 200" style="enable-background:new 0 0 200 200;" xml:space="preserve">
<style type="text/css">
	.st0{fill:#FFFFFF;}
</style>
<path class="st0" d="M186,107.6l-9.3-2.5c0.2-3.4,0.2-6.8,0-10.2l9.3-2.5c8-2.1,12.7-10.3,10.5-18.3s-10.3-12.7-18.3-10.5l-9.3,2.5
	c-1.5-3-3.2-6-5.1-8.9l6.8-6.8c5.8-5.8,5.8-15.3,0-21.1s-15.3-5.8-21.1,0l-6.8,6.8c-2.9-1.9-5.8-3.6-8.9-5.1l2.5-9.2
	c2.1-8-2.6-16.1-10.5-18.3S109.7,6,107.6,14l-2.5,9.3c-1.7-0.1-3.4-0.2-5.1-0.2s-3.4,0.1-5.1,0.2L92.4,14C90.3,6,82.1,1.3,74.1,3.4
	S61.4,13.7,63.6,21.7l2.5,9.2c-3.1,1.5-6,3.2-8.9,5.1l-6.8-6.8c-5.8-5.8-15.3-5.8-21.1,0c-5.8,5.8-5.8,15.3,0,21.1l6.8,6.8
	C34.1,60,32.4,63,31,66.1l-9.3-2.5c-8-2.1-16.1,2.6-18.3,10.5C1.3,82.1,6,90.3,14,92.4l9.3,2.5c-0.2,3.4-0.2,6.8,0,10.2l-9.3,2.5
	c-8,2.1-12.7,10.3-10.5,18.3c2.1,8,10.3,12.7,18.3,10.5l9.3-2.5c1.5,3,3.2,6,5.1,8.9l-6.8,6.8c-5.8,5.8-5.8,15.3,0,21.1
	c5.8,5.8,15.3,5.8,21.1,0l6.8-6.8c2.9,1.9,5.8,3.6,8.9,5.1l-2.5,9.2c-2.1,8,2.6,16.1,10.5,18.3S90.3,194,92.4,186l2.5-9.3
	c1.7,0.1,3.4,0.2,5.1,0.2s3.4-0.1,5.1-0.2l2.5,9.3c2.1,8,10.3,12.7,18.3,10.5s12.7-10.3,10.5-18.3l-2.5-9.2c3.1-1.5,6-3.2,8.9-5.1
	l6.8,6.8c5.8,5.8,15.3,5.8,21.1,0c5.8-5.8,5.8-15.3,0-21.1l-6.8-6.8c1.9-2.9,3.6-5.8,5.1-8.9l9.3,2.5c8,2.1,16.1-2.6,18.3-10.5
	S194,109.7,186,107.6z M66.8,133.2c-18.3-18.3-18.3-48.1,0-66.4C75.7,57.9,87.5,53,100,53s24.3,4.9,33.2,13.8
	c18.3,18.3,18.3,48.1,0,66.4h0c-8.9,8.9-20.7,13.8-33.2,13.8S75.7,142.1,66.8,133.2z"/>
</svg>
