<?xml version="1.0" encoding="utf-8"?>
<!-- Generator: Adobe Illustrator 27.4.0, SVG Export Plug-In . SVG Version: 6.00 Build 0)  -->
<svg version="1.1" id="레이어_1" xmlns="http://www.w3.org/2000/svg" xmlns:xlink="http://www.w3.org/1999/xlink" x="0px"
	 y="0px" viewBox="0 0 200 200" style="enable-background:new 0 0 200 200;" xml:space="preserve">
<style type="text/css">
	.st0{fill:#FFFFFF;}
</style>
<g>
	<g>
		<path class="st0" d="M100,9.6c-41.4,0-75,33.6-75,75s33.6,75,75,75s75-33.6,75-75S141.4,9.6,100,9.6z M100,139.6
			c-30.3,0-55-24.7-55-55s24.7-55,55-55s55,24.7,55,55S130.3,139.6,100,139.6z"/>
	</g>
	<g>
		<path class="st0" d="M81,163.4C50.3,156,26.4,131.2,20.4,100h1.8V58.4H6V100h4.2c6.3,36.7,34.6,65.9,70.8,73.7v6.1H119v-18.3H81
			V163.4z"/>
	</g>
</g>
<g>
	<path class="st0" d="M168.5,145.2c-3-1.9-6.1-3.7-9.4-5.4c-4,4.3-8.5,8.1-13.3,11.4c5,2.1,9.7,4.5,14,7.3
		c11.7,7.7,19.3,17.1,21.9,27.2H18.2c2.5-9.6,9.5-18.7,20.3-26.1c-3-2.4-5.8-5-8.5-7.8c-1.1-1.1-2.1-2.3-3.2-3.5
		c-16.6,12.4-26.6,28.7-26.6,45.9L0,200h200v-6C200,175.4,188,158,168.5,145.2z"/>
</g>
</svg>
