<?xml version="1.0" encoding="utf-8"?>
<!-- Generator: Adobe Illustrator 27.4.0, SVG Export Plug-In . SVG Version: 6.00 Build 0)  -->
<svg version="1.1" id="레이어_1" xmlns="http://www.w3.org/2000/svg" xmlns:xlink="http://www.w3.org/1999/xlink" x="0px"
	 y="0px" viewBox="0 0 200 200" style="enable-background:new 0 0 200 200;" xml:space="preserve">
<style type="text/css">
	.st0{fill:#FFFFFF;}
</style>
<path class="st0" d="M185,30H15C6.7,30,0,23.3,0,15v0C0,6.7,6.7,0,15,0h170c8.3,0,15,6.7,15,15v0C200,23.3,193.3,30,185,30z"/>
<path class="st0" d="M185,200H15c-8.3,0-15-6.7-15-15v0c0-8.3,6.7-15,15-15h170c8.3,0,15,6.7,15,15v0C200,193.3,193.3,200,185,200z"
	/>
<path class="st0" d="M185,115H15c-8.3,0-15-6.7-15-15v0c0-8.3,6.7-15,15-15h170c8.3,0,15,6.7,15,15v0C200,108.3,193.3,115,185,115z"
	/>
</svg>
