<?xml version="1.0" encoding="utf-8"?>
<!-- Generator: Adobe Illustrator 27.4.0, SVG Export Plug-In . SVG Version: 6.00 Build 0)  -->
<svg version="1.1" id="레이어_1" xmlns="http://www.w3.org/2000/svg" xmlns:xlink="http://www.w3.org/1999/xlink" x="0px"
	 y="0px" viewBox="0 0 200 200" style="enable-background:new 0 0 200 200;" xml:space="preserve">
<style type="text/css">
	.st0{fill:#FFFFFF;}
</style>
<g>
	<path class="st0" d="M158.9,139.5c1.4-5.9,2.3-12,2.8-18.3l10.6-4.9l11.8,10.2l13.1-15.1l-21.6-18.7l-14.2,6.6
		c-0.6-6-1.7-11.8-3.1-17.4l7.2-7.7l17,7.3l7.9-18.4l-29.9-12.9l-10,10.7c-1.6-3-3.2-6-5.1-8.7c-2.2-3.4-4.6-6.4-7.2-9.2l15.2-20.5
		c3.3-4.4,2.3-10.7-2.1-14c-4.4-3.3-10.7-2.3-14,2.1l-14.8,20c-7-3.8-14.6-5.7-22.5-5.7s-15.4,2-22.5,5.7l-14.8-20
		c-3.3-4.4-9.5-5.4-14-2.1c-4.4,3.3-5.4,9.5-2.1,14l15.2,20.5c-2.5,2.8-4.9,5.8-7.2,9.2c-1.8,2.8-3.5,5.7-5.1,8.7l-10-10.7L9.6,63.2
		l7.9,18.4l17-7.3l7.2,7.7c-1.4,5.6-2.5,11.4-3.1,17.4l-14.2-6.6L2.8,111.4l13.1,15.1l11.8-10.2l10.6,4.9c0.5,6.3,1.4,12.4,2.8,18.3
		l-15.8-2.9L5.7,162.1l15.8,12.2l12.2-15.8l15,2.7c1.8,3.7,3.8,7.2,5.9,10.4C66.4,189.3,82.5,199,100,199s33.6-9.7,45.3-27.3
		c2.2-3.3,4.2-6.8,5.9-10.4l15-2.7l12.2,15.8l15.8-12.2l-19.7-25.4L158.9,139.5z M133.9,84.1H66.1C72.4,63.5,85.4,49,100,49
		S127.6,63.5,133.9,84.1z M62,112c0-2.7,0.1-5.3,0.3-7.9H90v68.5C74.1,165.2,62,140.4,62,112z M110,172.7v-68.5h27.7
		c0.2,2.6,0.3,5.2,0.3,7.9C138,140.4,125.9,165.2,110,172.7z"/>
</g>
</svg>
