<?xml version="1.0" encoding="utf-8"?>
<!-- Generator: Adobe Illustrator 27.4.0, SVG Export Plug-In . SVG Version: 6.00 Build 0)  -->
<svg version="1.1" id="레이어_1" xmlns="http://www.w3.org/2000/svg" xmlns:xlink="http://www.w3.org/1999/xlink" x="0px"
	 y="0px" viewBox="0 0 200 200" style="enable-background:new 0 0 200 200;" xml:space="preserve">
<style type="text/css">
	.st0{fill:#FFFFFF;}
</style>
<g>
	<path class="st0" d="M148.6,192.2c-2.8,0-5.7-0.6-8.6-1.9l-40-17.6l-39.9,17.6c-6.8,3-13.7,2.4-19-1.4c-5.2-3.8-7.8-10.2-7-17.5
		l4.3-43.5L9.4,95.4C4.5,89.9,2.9,83.2,4.9,77c2-6.2,7.3-10.6,14.4-12.2L62,55.5l21.9-37.8c3.7-6.3,9.6-9.9,16-9.9c0,0,0.1,0,0.1,0
		c6.5,0,12.3,3.7,16,10l22,37.7l42.7,9.3c7.2,1.6,12.5,6.1,14.5,12.2c2,6.2,0.3,12.8-4.5,18.3l-29.1,32.6l4.4,43.5
		c0.7,7.3-1.9,13.7-7.2,17.5C155.8,191.1,152.3,192.2,148.6,192.2z M33.5,86.3l27.3,30.6l0.7,1.4c0.6,1.3,1.4,3.4,1.4,5.9v0.6
		l-4,39.8l38.5-16.9h5.3l38.5,16.9l-4.5-44.8l29.9-33.6l-38.7-8.4l0,0c-1.8-0.4-4.1-1.3-6.2-3.4l-1.1-1.1L99.9,37.9L80.6,71.3
		c-1.9,3.5-5.3,5.9-9.2,6.7L33.5,86.3z M104.5,29.9L104.5,29.9C104.5,29.9,104.5,29.9,104.5,29.9L104.5,29.9z"/>
</g>
</svg>
