<?xml version="1.0" encoding="utf-8"?>
<!-- Generator: Adobe Illustrator 27.4.0, SVG Export Plug-In . SVG Version: 6.00 Build 0)  -->
<svg version="1.1" id="레이어_1" xmlns="http://www.w3.org/2000/svg" xmlns:xlink="http://www.w3.org/1999/xlink" x="0px"
	 y="0px" viewBox="0 0 256 256" style="enable-background:new 0 0 256 256;" xml:space="preserve">
<style type="text/css">
	.st0{fill:#FFFFFF;}
</style>
<g transform="translate(1.4065934065934016 1.4065934065934016) scale(2.81 2.81)">
	<path class="st0" d="M10.9,63.8c12,12,30.2,14.1,44.4,6.3l19.5,19.5c0.5,0.5,1.4,0.5,1.9,0l12.9-12.9c0.5-0.5,0.5-1.4,0-1.9
		L70.1,55.3c7.8-14.2,5.7-32.4-6.3-44.4c-14.6-14.6-38.3-14.6-52.8,0S-3.6,49.2,10.9,63.8z M21.2,53.5c-8.9-8.9-8.9-23.4,0-32.3
		s23.4-8.9,32.3,0s8.9,23.4,0,32.3S30.1,62.5,21.2,53.5z"/>
</g>
</svg>
